<?xml version="1.0" encoding="UTF-8"?>
<svg id="Layer_1" data-name="Layer 1" xmlns="http://www.w3.org/2000/svg" viewBox="0 0 768 768">
  <defs>
    <style>
      .cls-1 {
        fill: #244f75;
      }

      .cls-2 {
        fill: #39babd;
      }

      .cls-3 {
        fill: #3786b9;
      }

      .cls-4 {
        fill: #234e75;
      }

      .cls-5 {
        fill: #3ab9be;
      }
    </style>
  </defs>
  <polygon class="cls-2" points="447.17 568.53 445.5 570.2 445.5 571.03 444.67 571.86 445.5 572.7 445.5 574.37 446.33 575.2 446.33 576.87 447.17 577.7 447.17 578.53 448 579.37 448 581.04 448.84 581.87 448.84 582.7 449.67 583.54 449.67 585.21 450.5 586.04 450.5 586.87 451.34 587.71 451.34 589.38 452.17 590.21 452.17 591.04 453.01 591.88 453.01 593.55 453.84 594.38 453.84 595.21 454.67 596.05 454.67 597.72 455.51 598.55 455.51 599.38 456.34 600.22 456.34 601.89 457.18 602.72 457.18 603.55 458.01 604.39 458.01 606.06 458.84 606.89 458.84 607.72 459.68 608.56 459.68 610.23 460.51 611.06 460.51 611.89 461.34 612.73 461.34 614.39 462.18 615.23 462.18 616.06 463.01 616.9 463.01 618.56 463.85 619.4 463.85 620.23 464.68 621.07 464.68 622.73 465.51 623.57 465.51 624.4 466.35 625.24 466.35 626.9 467.18 627.74 467.18 628.57 468.02 629.41 468.02 631.07 468.85 631.91 468.85 632.74 469.68 633.58 469.68 635.24 470.52 636.08 470.52 641.08 469.68 641.92 469.68 643.58 468.85 644.42 468.85 645.25 468.02 646.09 468.02 646.92 466.35 648.59 466.35 649.42 465.51 650.25 464.68 650.25 463.01 651.92 462.18 651.92 461.34 652.76 453.01 652.76 452.17 653.59 451.34 653.59 451.34 654.42 450.5 655.26 450.5 666.1 452.17 667.77 453.84 667.77 454.67 668.6 455.51 667.77 456.34 667.77 457.18 668.6 458.01 667.77 465.51 667.77 466.35 666.93 468.85 666.93 469.68 666.1 470.52 666.1 471.35 665.27 472.19 665.27 473.02 664.43 473.85 664.43 480.53 657.76 480.53 656.93 482.19 655.26 482.19 654.42 483.03 653.59 483.03 652.76 483.86 651.92 483.86 650.25 484.7 649.42 484.7 648.59 485.53 647.75 485.53 646.92 486.36 646.09 486.36 644.42 487.2 643.58 487.2 641.92 488.03 641.08 488.03 640.25 488.87 639.41 488.87 637.75 489.7 636.91 489.7 636.08 490.53 635.24 490.53 633.58 491.37 632.74 491.37 631.91 492.2 631.07 492.2 629.41 493.04 628.57 493.04 627.74 493.87 626.9 493.87 625.24 494.7 624.4 494.7 623.57 495.54 622.73 495.54 621.07 496.37 620.23 496.37 619.4 497.2 618.56 497.2 616.9 498.04 616.06 498.04 614.39 498.87 613.56 498.87 612.73 499.71 611.89 499.71 611.06 500.54 610.23 500.54 608.56 501.37 607.72 501.37 606.89 502.21 606.06 502.21 604.39 503.04 603.55 503.04 601.89 503.88 601.05 503.88 600.22 504.71 599.38 504.71 597.72 505.54 596.88 505.54 596.05 506.38 595.21 506.38 593.55 507.21 592.71 507.21 591.88 508.05 591.04 508.05 589.38 508.88 588.54 508.88 587.71 509.71 586.87 509.71 585.21 510.55 584.37 510.55 582.7 511.38 581.87 511.38 581.04 512.22 580.2 512.22 578.53 513.05 577.7 513.05 576.87 513.88 576.03 513.88 574.37 514.72 573.53 514.72 570.2 513.05 568.53 498.87 568.53 497.2 570.2 497.2 571.03 496.37 571.86 496.37 573.53 495.54 574.37 495.54 576.03 494.7 576.87 494.7 577.7 493.87 578.53 493.87 580.2 493.04 581.04 493.04 582.7 492.2 583.54 492.2 584.37 491.37 585.21 491.37 586.87 490.53 587.71 490.53 589.38 489.7 590.21 489.7 591.04 488.87 591.88 488.87 593.55 488.03 594.38 488.03 596.05 487.2 596.88 487.2 598.55 486.36 599.38 486.36 600.22 485.53 601.05 485.53 602.72 484.7 603.55 484.7 605.22 483.86 606.06 483.86 606.89 483.03 607.72 483.03 609.39 482.19 610.23 482.19 611.89 481.36 612.73 481.36 613.56 480.53 614.39 479.69 613.56 479.69 611.89 478.86 611.06 478.86 610.23 478.02 609.39 478.02 607.72 477.19 606.89 477.19 605.22 476.36 604.39 476.36 603.55 475.52 602.72 475.52 601.05 474.69 600.22 474.69 599.38 473.85 598.55 473.85 596.88 473.02 596.05 473.02 595.21 472.19 594.38 472.19 592.71 471.35 591.88 471.35 590.21 470.52 589.38 470.52 588.54 469.68 587.71 469.68 586.04 468.85 585.21 468.85 583.54 468.02 582.7 468.02 581.87 467.18 581.04 467.18 579.37 466.35 578.53 466.35 577.7 465.51 576.87 465.51 575.2 464.68 574.37 464.68 572.7 463.85 571.86 463.85 571.03 463.01 570.2 463.01 569.36 462.18 568.53 447.17 568.53"/>
  <polygon class="cls-1" points="295.39 568.53 293.72 570.2 293.72 571.03 292.89 571.86 292.89 618.56 293.72 619.4 293.72 623.57 294.55 624.4 294.55 626.07 295.39 626.9 295.39 627.74 296.22 628.57 296.22 629.41 297.06 630.24 297.06 631.07 302.89 636.91 303.73 636.91 305.4 638.58 306.23 638.58 307.06 639.41 308.73 639.41 309.57 640.25 312.07 640.25 312.9 641.08 324.58 641.08 325.41 640.25 327.08 640.25 327.91 639.41 329.58 639.41 330.41 638.58 331.25 638.58 332.08 637.75 332.92 637.75 333.75 636.91 334.58 636.91 340.42 631.07 341.26 631.91 341.26 637.75 342.09 638.58 342.09 639.41 357.1 639.41 357.93 638.58 357.93 586.04 358.77 585.21 357.93 584.37 357.93 581.87 358.77 581.04 358.77 580.2 357.93 579.37 358.77 578.53 358.77 577.7 357.93 576.87 357.93 570.2 356.27 568.53 342.09 568.53 341.26 569.36 341.26 570.2 340.42 571.03 340.42 611.89 339.59 612.73 339.59 615.23 338.75 616.06 338.75 616.9 337.09 618.56 337.09 619.4 333.75 622.73 332.92 622.73 332.08 623.57 331.25 623.57 330.41 624.4 328.75 624.4 327.91 625.24 322.91 625.24 322.07 624.4 319.57 624.4 318.74 623.57 317.91 623.57 313.74 619.4 313.74 618.56 312.9 617.73 312.9 616.9 312.07 616.06 312.07 612.73 311.23 611.89 311.23 570.2 309.57 568.53 295.39 568.53"/>
  <polygon class="cls-2" points="631.47 566.86 630.64 567.69 625.63 567.69 624.8 568.53 623.13 568.53 622.3 569.36 620.63 569.36 619.8 570.2 618.96 570.2 618.13 571.03 617.29 571.03 616.46 571.86 615.63 571.86 614.79 572.7 613.96 572.7 611.46 575.2 610.62 575.2 607.29 578.53 607.29 579.37 604.78 581.87 604.78 582.7 603.12 584.37 603.12 585.21 602.28 586.04 602.28 586.87 601.45 587.71 601.45 589.38 600.61 590.21 600.61 591.88 599.78 592.71 599.78 595.21 598.95 596.05 598.95 601.05 598.11 601.89 598.11 608.56 598.95 609.39 598.95 614.39 599.78 615.23 599.78 616.9 600.61 617.73 600.61 619.4 601.45 620.23 601.45 621.9 602.28 622.73 602.28 623.57 603.12 624.4 603.12 625.24 604.78 626.9 604.78 627.74 611.46 634.41 612.29 634.41 613.96 636.08 614.79 636.08 615.63 636.91 616.46 636.91 617.29 637.75 618.13 637.75 618.96 638.58 619.8 638.58 620.63 639.41 622.3 639.41 623.13 640.25 626.47 640.25 627.3 641.08 639.81 641.08 640.64 640.25 643.98 640.25 644.81 639.41 646.48 639.41 647.32 638.58 648.98 638.58 649.82 637.75 650.65 637.75 651.49 636.91 652.32 636.91 653.15 636.08 653.99 636.08 655.66 634.41 656.49 634.41 661.49 629.41 661.49 626.9 655.66 621.07 655.66 620.23 653.99 618.56 650.65 618.56 648.15 621.07 647.32 621.07 645.65 622.73 644.81 622.73 643.98 623.57 642.31 623.57 641.48 624.4 639.81 624.4 638.98 625.24 631.47 625.24 630.64 624.4 628.97 624.4 628.14 623.57 627.3 623.57 626.47 622.73 625.63 622.73 623.13 620.23 622.3 620.23 621.46 619.4 621.46 618.56 619.8 616.9 619.8 616.06 618.96 615.23 618.96 614.39 618.13 613.56 618.13 611.89 617.29 611.06 617.29 608.56 616.46 607.72 616.46 600.22 617.29 599.38 617.29 596.05 618.13 595.21 618.13 594.38 618.96 593.55 618.96 592.71 619.8 591.88 619.8 591.04 621.46 589.38 621.46 588.54 623.13 586.87 623.97 586.87 625.63 585.21 626.47 585.21 627.3 584.37 628.14 584.37 628.97 583.54 630.64 583.54 631.47 582.7 638.98 582.7 639.81 583.54 641.48 583.54 642.31 584.37 643.15 584.37 643.98 585.21 644.81 585.21 646.48 586.87 647.32 586.87 648.98 588.54 649.82 588.54 650.65 589.38 651.49 589.38 652.32 588.54 653.15 588.54 660.66 581.04 660.66 577.7 658.99 576.03 658.99 575.2 658.16 574.37 657.32 574.37 655.66 572.7 654.82 572.7 653.99 571.86 653.15 571.86 652.32 571.03 651.49 571.03 650.65 570.2 649.82 570.2 648.98 569.36 647.32 569.36 646.48 568.53 643.98 568.53 643.15 567.69 638.14 567.69 637.31 566.86 631.47 566.86"/>
  <polygon class="cls-2" points="559.75 566.86 558.92 567.69 554.75 567.69 553.91 568.53 552.25 568.53 551.41 569.36 550.58 569.36 549.74 570.2 548.91 570.2 547.24 571.86 546.41 571.86 543.91 574.37 543.91 575.2 542.24 576.87 541.4 576.03 541.4 571.03 540.57 570.2 540.57 569.36 539.74 568.53 526.39 568.53 524.73 570.2 524.73 637.75 526.39 639.41 540.57 639.41 542.24 637.75 542.24 596.05 543.07 595.21 543.07 592.71 543.91 591.88 543.91 591.04 544.74 590.21 544.74 589.38 549.74 584.37 550.58 584.37 551.41 583.54 553.08 583.54 553.91 582.7 559.75 582.7 560.59 583.54 562.25 583.54 563.09 584.37 563.92 584.37 564.76 585.21 565.59 585.21 568.09 587.71 568.09 588.54 568.92 589.38 568.92 590.21 569.76 591.04 569.76 591.88 570.59 592.71 570.59 597.72 571.43 598.55 571.43 615.23 570.59 616.06 571.43 616.9 570.59 617.73 570.59 619.4 571.43 620.23 571.43 621.07 570.59 621.9 571.43 622.73 571.43 624.4 570.59 625.24 570.59 631.07 571.43 631.91 571.43 632.74 570.59 633.58 571.43 634.41 571.43 637.75 573.09 639.41 587.27 639.41 588.94 637.75 588.94 590.21 588.11 589.38 588.11 586.04 587.27 585.21 587.27 583.54 586.44 582.7 586.44 581.87 585.6 581.04 585.6 579.37 583.94 577.7 583.94 576.87 578.93 571.86 578.1 571.86 576.43 570.2 575.6 570.2 574.76 569.36 573.93 569.36 573.09 568.53 570.59 568.53 569.76 567.69 565.59 567.69 564.76 566.86 559.75 566.86"/>
  <polygon class="cls-1" points="135.27 543.51 134.44 544.34 134.44 545.18 133.6 546.01 133.6 636.91 134.44 637.75 134.44 638.58 135.27 639.41 195.31 639.41 196.98 637.75 196.98 625.24 195.31 623.57 155.28 623.57 154.45 622.73 154.45 601.05 155.28 600.22 188.64 600.22 190.31 598.55 190.31 586.04 188.64 584.37 155.28 584.37 154.45 583.54 154.45 561.86 155.28 561.02 191.98 561.02 192.81 560.19 193.65 560.19 194.48 559.35 194.48 545.18 192.81 543.51 135.27 543.51"/>
  <polygon class="cls-2" points="397.96 541.84 397.13 542.67 394.63 542.67 393.79 543.51 392.13 543.51 391.29 544.34 389.62 544.34 388.79 545.18 387.96 545.18 387.12 546.01 386.29 546.01 385.46 546.84 384.62 546.84 382.95 548.51 382.12 548.51 377.12 553.52 377.12 554.35 375.45 556.02 375.45 556.85 374.61 557.69 374.61 559.35 373.78 560.19 373.78 561.02 372.95 561.86 372.95 566.03 372.11 566.86 372.11 572.7 372.95 573.53 372.95 576.87 373.78 577.7 373.78 579.37 374.61 580.2 374.61 581.04 376.28 582.7 376.28 583.54 382.12 589.38 382.95 589.38 383.79 590.21 384.62 590.21 386.29 591.88 387.12 591.88 387.96 592.71 388.79 592.71 389.62 593.55 391.29 593.55 392.13 594.38 392.96 594.38 393.79 595.21 395.46 595.21 396.3 596.05 397.96 596.05 398.8 596.88 400.47 596.88 401.3 597.72 402.97 597.72 403.8 598.55 405.47 598.55 406.3 599.38 407.97 599.38 408.81 600.22 409.64 600.22 410.47 601.05 412.14 601.05 412.98 601.89 413.81 601.89 414.64 602.72 415.48 602.72 421.32 608.56 421.32 610.23 422.15 611.06 422.15 614.39 421.32 615.23 421.32 617.73 418.81 620.23 418.81 621.07 417.98 621.9 417.15 621.9 415.48 623.57 414.64 623.57 413.81 624.4 411.31 624.4 410.47 625.24 401.3 625.24 400.47 624.4 397.96 624.4 397.13 623.57 395.46 623.57 394.63 622.73 392.96 622.73 391.29 621.07 390.46 621.07 389.62 620.23 388.79 620.23 385.46 616.9 384.62 616.9 382.95 615.23 382.12 615.23 381.29 614.39 380.45 615.23 379.62 615.23 372.95 621.9 372.95 622.73 371.28 624.4 371.28 627.74 375.45 631.91 376.28 631.91 378.78 634.41 379.62 634.41 380.45 635.24 381.29 635.24 382.12 636.08 382.95 636.08 383.79 636.91 384.62 636.91 385.46 637.75 386.29 637.75 387.12 638.58 388.79 638.58 389.62 639.41 392.13 639.41 392.96 640.25 396.3 640.25 397.13 641.08 412.98 641.08 413.81 640.25 417.15 640.25 417.98 639.41 419.65 639.41 420.48 638.58 421.32 638.58 422.15 637.75 422.98 637.75 423.82 636.91 424.65 636.91 425.48 636.08 426.32 636.08 428.82 633.58 429.65 633.58 431.32 631.91 431.32 631.07 434.66 627.74 434.66 626.9 435.49 626.07 435.49 625.24 436.33 624.4 436.33 623.57 437.16 622.73 437.16 621.9 437.99 621.07 437.99 619.4 438.83 618.56 438.83 614.39 439.66 613.56 439.66 606.89 438.83 606.06 438.83 603.55 437.99 602.72 437.99 601.05 437.16 600.22 437.16 599.38 436.33 598.55 436.33 597.72 430.49 591.88 429.65 591.88 427.99 590.21 427.15 590.21 426.32 589.38 425.48 589.38 424.65 588.54 423.82 588.54 422.98 587.71 422.15 587.71 421.32 586.87 420.48 586.87 419.65 586.04 417.98 586.04 417.15 585.21 416.31 585.21 415.48 584.37 413.81 584.37 412.98 583.54 411.31 583.54 410.47 582.7 408.81 582.7 407.97 581.87 406.3 581.87 405.47 581.04 403.8 581.04 402.97 580.2 401.3 580.2 400.47 579.37 399.63 579.37 398.8 578.53 397.96 578.53 397.13 577.7 396.3 577.7 393.79 575.2 392.96 575.2 392.13 574.37 392.13 573.53 391.29 572.7 391.29 571.86 390.46 571.03 390.46 565.19 391.29 564.36 391.29 563.52 395.46 559.35 396.3 559.35 397.13 558.52 398.8 558.52 399.63 557.69 411.31 557.69 412.14 558.52 414.64 558.52 415.48 559.35 417.15 559.35 417.98 560.19 419.65 560.19 420.48 561.02 421.32 561.02 422.15 561.86 422.98 561.86 424.65 563.52 426.32 563.52 427.15 564.36 435.49 556.02 435.49 552.68 432.16 549.35 431.32 549.35 429.65 547.68 428.82 547.68 427.15 546.01 426.32 546.01 425.48 545.18 423.82 545.18 422.98 544.34 422.15 544.34 421.32 543.51 418.81 543.51 417.98 542.67 414.64 542.67 413.81 541.84 397.96 541.84"/>
  <path class="cls-1" d="M277.04,541.01h-15.01l-.83.83v.83l-.84.84v30.86l-.83.83-3.34-3.34h-.83l-1.67-1.66h-.83l-.84-.84h-1.67l-.83-.83h-1.67l-.83-.84h-3.34l-.83-.83h-7.51l-.83.83h-3.34l-.83.84h-1.67l-.83.83h-1.67l-.83.84h-.84l-.83.83h-.84l-1.66,1.67h-.84l-5.84,5.83v.84l-2.5,2.5v.83l-.83.84v.83l-.83.84v.83l-.84.83v1.67l-.83.84v1.66l-.84.84v2.5l-.83.83v4.17l-.83.84v9.17l.83.84v5l.83.83v1.67l.84.83v1.67l.83.84v.83l.84.83v1.67l1.66,1.67v.83l.84.84v.83l7.5,7.51h.84l.83.83h.83l1.67,1.67h1.67l.83.83h.84l.83.84h2.5l.84.83h12.51l.83-.83h2.5l.84-.84h.83l.83-.83h1.67l1.67-1.67h.83l1.67-1.67h.84l2.5-2.5v-.83l.83-.84h.84l.83.84v5.84l1.67,1.66h14.18l.83-.83v-95.91l-1.67-1.66ZM241.32,623.2c-8.79,0-15.92-8.24-15.92-18.4s7.13-18.39,15.92-18.39,15.92,8.24,15.92,18.39-7.13,18.4-15.92,18.4Z"/>
  <polygon class="cls-4" points="388.26 202.92 387.53 203.66 386.79 203.66 384.59 205.86 383.86 205.86 376.53 213.19 375.79 213.19 369.19 219.79 368.46 219.79 361.86 226.39 361.13 226.39 355.26 232.25 354.53 232.25 347.93 238.85 347.2 238.85 340.6 245.45 339.86 245.45 334 251.32 334 252.05 333.27 252.79 333.27 254.25 334 254.98 334 255.72 334.73 256.45 346.46 256.45 347.2 257.18 347.2 280.65 346.46 281.38 299.54 281.38 298.8 282.11 298.07 282.11 295.87 284.31 295.87 285.05 294.4 286.51 294.4 287.25 292.94 288.71 292.94 289.45 292.2 290.18 292.2 290.91 290.74 292.38 290.74 293.11 289.27 294.58 289.27 295.31 287.8 296.78 287.8 297.51 286.34 298.98 286.34 299.71 284.87 301.18 284.87 301.91 284.14 302.65 284.14 303.38 283.4 304.11 283.4 305.58 284.14 306.31 284.14 307.78 285.6 309.25 286.34 309.25 287.07 309.98 295.14 309.98 295.87 310.71 295.87 384.77 296.6 385.5 296.6 387.7 297.34 388.44 297.34 389.17 298.07 389.9 298.07 390.64 300.27 392.84 300.27 393.57 301 393.57 302.47 395.04 303.2 395.04 303.94 395.77 304.67 395.77 305.4 396.5 306.87 396.5 307.6 397.24 374.33 397.24 374.33 363.51 375.06 362.77 375.06 361.31 375.79 360.57 375.79 359.84 376.53 359.11 376.53 358.37 378.73 356.17 379.46 356.17 380.19 355.44 380.93 355.44 381.66 354.71 383.13 354.71 383.86 353.97 397.79 353.97 398.52 354.71 400.72 354.71 402.19 356.17 402.92 356.17 405.12 358.37 405.12 359.11 405.86 359.84 405.86 360.57 406.59 361.31 406.59 363.51 407.32 364.24 407.32 397.24 437.39 397.24 438.12 396.5 441.05 396.5 441.79 395.77 443.99 395.77 444.72 395.04 446.19 395.04 446.92 394.3 448.39 394.3 449.12 393.57 450.59 393.57 451.32 392.84 452.79 392.84 453.52 392.1 454.25 392.1 454.98 391.37 455.72 391.37 456.45 390.64 457.18 390.64 457.92 389.9 458.65 389.9 459.38 389.17 460.12 389.17 460.85 388.44 461.58 388.44 462.32 387.7 463.05 387.7 463.78 386.97 464.52 386.97 465.98 385.5 466.72 385.5 468.92 383.3 469.65 383.3 472.58 380.37 473.32 380.37 478.45 375.24 478.45 374.5 481.38 371.57 481.38 370.84 482.12 370.1 482.12 369.37 482.85 368.64 482.85 367.91 483.58 367.17 483.58 366.44 484.31 365.71 484.31 363.51 485.05 362.77 485.05 310.71 485.78 309.98 493.85 309.98 494.58 309.25 495.31 309.25 497.51 307.05 497.51 303.38 496.78 302.65 496.78 301.91 496.05 301.18 496.05 300.45 494.58 298.98 494.58 298.25 493.11 296.78 493.11 296.05 491.65 294.58 491.65 293.85 490.18 292.38 490.18 291.65 488.71 290.18 488.71 289.45 487.25 287.98 487.25 287.25 486.51 286.51 486.51 285.78 485.05 284.31 485.05 283.58 483.58 282.11 482.85 282.11 482.12 281.38 434.45 281.38 433.72 280.65 433.72 257.18 434.45 256.45 446.19 256.45 446.92 255.72 446.92 254.98 447.65 254.25 447.65 252.79 446.92 252.05 446.92 251.32 439.59 243.99 438.85 243.99 432.99 238.12 432.25 238.12 425.65 231.52 424.92 231.52 418.32 224.92 417.59 224.92 410.99 218.32 410.26 218.32 403.66 211.72 402.92 211.72 396.32 205.12 395.59 205.12 394.13 203.66 393.39 203.66 392.66 202.92 388.26 202.92"/>
  <polygon class="cls-5" points="427.15 125.7 431.32 129.87 431.32 130.7 432.99 132.37 432.99 133.2 434.66 134.87 434.66 135.71 435.49 136.54 435.49 137.37 436.33 138.21 436.33 140.71 437.16 141.54 437.16 147.38 436.33 148.22 436.33 149.88 435.49 150.72 435.49 151.55 434.66 152.39 434.66 153.22 430.49 157.39 432.16 157.39 432.99 158.22 434.66 158.22 435.49 159.06 437.16 159.06 437.99 159.89 439.66 159.89 440.5 160.72 442.16 160.72 443 161.56 443.83 161.56 444.67 162.39 446.33 162.39 447.17 163.23 448 163.23 448.84 164.06 450.5 164.06 451.34 164.89 452.17 164.89 453.01 165.73 453.84 165.73 454.67 166.56 455.51 166.56 456.34 167.4 457.18 167.4 458.01 168.23 458.84 168.23 459.68 169.06 460.51 169.06 461.34 169.9 462.18 169.9 463.01 170.73 463.85 170.73 464.68 171.57 465.51 171.57 467.18 173.23 468.02 173.23 468.85 174.07 469.68 174.07 471.35 175.74 472.19 175.74 473.85 177.4 474.69 177.4 476.36 179.07 477.19 179.07 479.69 181.57 480.53 181.57 483.03 184.08 483.86 184.08 487.2 187.41 488.03 187.41 506.38 205.76 506.38 206.59 508.88 209.09 508.88 209.93 511.38 212.43 511.38 213.26 513.88 215.77 513.88 216.6 515.55 218.27 515.55 219.1 517.22 220.77 517.22 221.6 518.05 222.44 518.05 223.27 519.72 224.94 519.72 225.77 520.56 226.61 520.56 227.44 522.22 229.11 522.22 229.94 523.06 230.78 523.06 231.61 523.89 232.44 523.89 233.28 524.73 234.11 524.73 234.95 525.56 235.78 525.56 236.61 526.39 237.45 526.39 238.28 527.23 239.12 527.23 240.78 528.06 241.62 528.06 242.45 528.9 243.29 528.9 244.12 529.73 244.95 529.73 246.62 530.56 247.46 530.56 249.12 531.4 249.96 531.4 250.79 532.23 251.63 532.23 253.29 533.06 254.13 533.06 255.8 533.9 256.63 533.9 259.13 534.73 259.97 534.73 262.47 535.57 263.3 535.57 265.8 536.4 266.64 536.4 269.14 537.23 269.97 537.23 273.31 538.07 274.14 538.07 278.31 538.9 279.15 538.9 286.65 539.74 287.49 539.74 312.5 538.9 313.34 538.9 320.01 538.07 320.84 538.07 325.01 537.23 325.85 537.23 330.02 536.4 330.85 536.4 333.35 535.57 334.19 535.57 336.69 534.73 337.52 534.73 340.02 533.9 340.86 533.9 342.53 533.06 343.36 533.06 345.86 532.23 346.7 532.23 348.36 531.4 349.2 531.4 350.03 530.56 350.87 530.56 352.53 529.73 353.37 529.73 355.04 528.9 355.87 528.9 356.7 528.06 357.54 528.06 358.37 527.23 359.21 527.23 360.04 526.39 360.87 526.39 362.54 525.56 363.38 525.56 364.21 524.73 365.04 524.73 365.88 523.89 366.71 523.89 367.54 523.06 368.38 523.06 369.21 521.39 370.88 521.39 371.71 520.56 372.55 520.56 373.38 519.72 374.22 519.72 375.05 518.05 376.72 518.05 377.55 516.39 379.22 516.39 380.05 514.72 381.72 514.72 382.56 513.05 384.22 513.05 385.06 510.55 387.56 510.55 388.39 507.21 391.73 507.21 392.56 501.37 398.4 501.37 399.24 494.7 405.91 493.87 405.91 487.2 412.58 486.36 412.58 483.03 415.91 482.19 415.91 480.53 417.58 479.69 417.58 477.19 420.08 476.36 420.08 474.69 421.75 473.85 421.75 472.19 423.42 471.35 423.42 470.52 424.25 469.68 424.25 468.02 425.92 467.18 425.92 466.35 426.76 465.51 426.76 463.85 428.42 463.01 428.42 462.18 429.26 461.34 429.26 460.51 430.09 459.68 430.09 458.84 430.93 458.01 430.93 457.18 431.76 456.34 431.76 455.51 432.59 454.67 432.59 453.84 433.43 452.17 433.43 451.34 434.26 450.5 434.26 449.67 435.1 448.84 435.1 448 435.93 446.33 435.93 445.5 436.76 444.67 436.76 443.83 437.6 442.16 437.6 441.33 438.43 439.66 438.43 438.83 439.26 436.33 439.26 435.49 440.1 433.82 440.1 432.99 440.93 430.49 440.93 429.65 441.77 427.15 441.77 426.32 442.6 422.98 442.6 422.15 443.43 418.81 443.43 417.98 444.27 412.14 444.27 411.31 445.1 410.47 444.27 410.47 443.43 411.31 442.6 411.31 441.77 412.14 440.93 412.14 439.26 412.98 438.43 412.98 436.76 413.81 435.93 413.81 433.43 414.64 432.59 413.81 431.76 413.81 429.26 412.98 428.42 412.98 427.59 410.47 425.09 408.81 425.09 407.97 424.25 402.97 424.25 402.13 425.09 401.3 425.09 400.47 425.92 399.63 425.92 395.46 430.09 394.63 430.09 389.62 435.1 388.79 435.1 382.95 440.93 382.12 440.93 376.28 446.77 375.45 446.77 368.78 453.44 368.78 454.28 367.94 455.11 367.94 458.45 367.11 459.28 367.94 460.11 367.94 462.62 368.78 463.45 368.78 464.28 370.44 465.95 370.44 466.79 398.8 495.14 399.63 495.14 400.47 495.97 402.97 495.97 403.8 496.81 405.47 496.81 406.3 495.97 408.81 495.97 409.64 495.14 410.47 495.14 412.98 492.64 412.98 491.8 413.81 490.97 413.81 490.14 414.64 489.3 414.64 485.13 413.81 484.3 413.81 482.63 412.98 481.8 412.98 480.96 412.14 480.13 412.14 479.29 410.47 477.63 410.47 476.79 411.31 475.96 417.98 475.96 418.81 475.12 422.15 475.12 422.98 474.29 426.32 474.29 427.15 473.46 430.49 473.46 431.32 472.62 433.82 472.62 434.66 471.79 437.16 471.79 437.99 470.96 440.5 470.96 441.33 470.12 443 470.12 443.83 469.29 446.33 469.29 447.17 468.45 448.84 468.45 449.67 467.62 450.5 467.62 451.34 466.79 453.01 466.79 453.84 465.95 455.51 465.95 456.34 465.12 457.18 465.12 458.01 464.28 459.68 464.28 460.51 463.45 461.34 463.45 462.18 462.62 463.85 462.62 464.68 461.78 465.51 461.78 466.35 460.95 467.18 460.95 468.02 460.11 468.85 460.11 469.68 459.28 470.52 459.28 471.35 458.45 472.19 458.45 473.02 457.61 473.85 457.61 474.69 456.78 475.52 456.78 476.36 455.94 477.19 455.94 478.02 455.11 478.86 455.11 479.69 454.28 480.53 454.28 482.19 452.61 483.03 452.61 483.86 451.77 484.7 451.77 486.36 450.11 487.2 450.11 488.03 449.27 488.87 449.27 490.53 447.6 491.37 447.6 493.04 445.94 493.87 445.94 495.54 444.27 496.37 444.27 498.87 441.77 499.71 441.77 503.04 438.43 503.88 438.43 507.21 435.1 508.05 435.1 513.05 430.09 513.88 430.09 527.23 416.75 527.23 415.91 532.23 410.91 532.23 410.08 535.57 406.74 535.57 405.91 537.23 404.24 537.23 403.4 539.74 400.9 539.74 400.07 541.4 398.4 541.4 397.57 543.07 395.9 543.07 395.07 544.74 393.4 544.74 392.56 545.57 391.73 545.57 390.9 547.24 389.23 547.24 388.39 548.08 387.56 548.08 386.73 548.91 385.89 548.91 385.06 549.74 384.22 549.74 383.39 550.58 382.56 550.58 381.72 551.41 380.89 551.41 380.05 552.25 379.22 552.25 378.39 553.08 377.55 553.08 376.72 553.91 375.88 553.91 375.05 554.75 374.22 554.75 373.38 555.58 372.55 555.58 371.71 556.42 370.88 556.42 369.21 557.25 368.38 557.25 367.54 558.08 366.71 558.08 365.04 558.92 364.21 558.92 363.38 559.75 362.54 559.75 360.87 560.59 360.04 560.59 358.37 561.42 357.54 561.42 356.7 562.25 355.87 562.25 354.2 563.09 353.37 563.09 350.87 563.92 350.03 563.92 348.36 564.76 347.53 564.76 345.03 565.59 344.19 565.59 341.69 566.42 340.86 566.42 338.36 567.26 337.52 567.26 335.02 568.09 334.19 568.09 330.02 568.92 329.18 568.92 325.01 569.76 324.18 569.76 317.51 570.59 316.67 570.59 303.33 571.43 302.5 571.43 296.66 570.59 295.83 570.59 283.32 569.76 282.48 569.76 275.81 568.92 274.98 568.92 269.97 568.09 269.14 568.09 265.8 567.26 264.97 567.26 261.63 566.42 260.8 566.42 258.3 565.59 257.46 565.59 254.96 564.76 254.13 564.76 251.63 563.92 250.79 563.92 249.12 563.09 248.29 563.09 246.62 562.25 245.79 562.25 244.12 561.42 243.29 561.42 241.62 560.59 240.78 560.59 239.12 559.75 238.28 559.75 236.61 558.92 235.78 558.92 234.95 558.08 234.11 558.08 232.44 557.25 231.61 557.25 230.78 556.42 229.94 556.42 229.11 555.58 228.27 555.58 226.61 554.75 225.77 554.75 224.94 553.91 224.11 553.91 223.27 553.08 222.44 553.08 221.6 552.25 220.77 552.25 219.94 551.41 219.1 551.41 218.27 550.58 217.43 550.58 216.6 549.74 215.77 549.74 214.93 548.91 214.1 548.91 213.26 547.24 211.6 547.24 210.76 546.41 209.93 546.41 209.09 545.57 208.26 545.57 207.43 543.91 205.76 543.91 204.92 542.24 203.26 542.24 202.42 541.4 201.59 541.4 200.75 539.74 199.09 539.74 198.25 537.23 195.75 537.23 194.92 534.73 192.41 534.73 191.58 532.23 189.08 532.23 188.25 528.06 184.08 528.06 183.24 508.05 163.23 507.21 163.23 503.88 159.89 503.04 159.89 499.71 156.55 498.87 156.55 497.2 154.89 496.37 154.89 493.87 152.39 493.04 152.39 492.2 151.55 491.37 151.55 489.7 149.88 488.87 149.88 487.2 148.22 486.36 148.22 485.53 147.38 484.7 147.38 483.03 145.71 482.19 145.71 481.36 144.88 480.53 144.88 479.69 144.05 478.86 144.05 478.02 143.21 477.19 143.21 476.36 142.38 475.52 142.38 474.69 141.54 473.85 141.54 473.02 140.71 472.19 140.71 471.35 139.88 470.52 139.88 469.68 139.04 468.85 139.04 468.02 138.21 467.18 138.21 466.35 137.37 465.51 137.37 464.68 136.54 463.85 136.54 463.01 135.71 461.34 135.71 460.51 134.87 459.68 134.87 458.84 134.04 457.18 134.04 456.34 133.2 455.51 133.2 454.67 132.37 453.01 132.37 452.17 131.54 450.5 131.54 449.67 130.7 447.17 130.7 446.33 129.87 444.67 129.87 443.83 129.03 442.16 129.03 441.33 128.2 438.83 128.2 437.99 127.37 435.49 127.37 434.66 126.53 431.32 126.53 430.49 125.7 427.15 125.7"/>
  <polygon class="cls-3" points="371.28 107.35 370.44 108.19 369.61 108.19 366.27 111.52 366.27 113.19 365.44 114.02 365.44 117.36 366.27 118.19 366.27 119.86 367.94 121.53 367.94 122.36 368.78 123.2 368.78 124.03 369.61 124.86 368.78 125.7 365.44 125.7 364.61 126.53 358.77 126.53 357.93 127.37 353.77 127.37 352.93 128.2 348.76 128.2 347.93 129.03 344.59 129.03 343.76 129.87 341.26 129.87 340.42 130.7 337.92 130.7 337.09 131.54 334.58 131.54 333.75 132.37 331.25 132.37 330.41 133.2 328.75 133.2 327.91 134.04 326.24 134.04 325.41 134.87 323.74 134.87 322.91 135.71 321.24 135.71 320.41 136.54 318.74 136.54 317.91 137.37 317.07 137.37 316.24 138.21 314.57 138.21 313.74 139.04 312.9 139.04 312.07 139.88 310.4 139.88 309.57 140.71 308.73 140.71 307.9 141.54 307.06 141.54 306.23 142.38 305.4 142.38 304.56 143.21 303.73 143.21 302.89 144.05 302.06 144.05 301.23 144.88 300.39 144.88 299.56 145.71 298.72 145.71 297.89 146.55 297.06 146.55 296.22 147.38 295.39 147.38 294.55 148.22 293.72 148.22 292.05 149.88 291.22 149.88 290.38 150.72 289.55 150.72 287.88 152.39 287.05 152.39 286.21 153.22 285.38 153.22 283.71 154.89 282.88 154.89 281.21 156.55 280.38 156.55 278.71 158.22 277.88 158.22 275.37 160.72 274.54 160.72 272.04 163.23 271.2 163.23 267.87 166.56 267.03 166.56 260.36 173.23 259.53 173.23 250.35 182.41 250.35 183.24 244.52 189.08 244.52 189.91 241.18 193.25 241.18 194.08 237.85 197.42 237.85 198.25 235.34 200.75 235.34 201.59 233.68 203.26 233.68 204.09 232.84 204.92 232.84 205.76 231.17 207.43 231.17 208.26 229.51 209.93 229.51 210.76 227.84 212.43 227.84 213.26 227 214.1 227 214.93 226.17 215.77 226.17 216.6 224.5 218.27 224.5 219.1 223.67 219.94 223.67 220.77 222.83 221.6 222.83 222.44 222 223.27 222 224.11 221.17 224.94 221.17 225.77 220.33 226.61 220.33 227.44 219.5 228.27 219.5 229.11 218.66 229.94 218.66 231.61 217.83 232.44 217.83 233.28 217 234.11 217 234.95 216.16 235.78 216.16 237.45 215.33 238.28 215.33 239.12 214.49 239.95 214.49 241.62 213.66 242.45 213.66 244.12 212.83 244.95 212.83 246.62 211.99 247.46 211.99 249.12 211.16 249.96 211.16 251.63 210.33 252.46 210.33 254.13 209.49 254.96 209.49 257.46 208.66 258.3 208.66 260.8 207.82 261.63 207.82 264.13 206.99 264.97 206.99 267.47 206.16 268.3 206.16 272.47 205.32 273.31 205.32 277.48 204.49 278.31 204.49 284.15 203.65 284.98 203.65 295.83 202.82 296.66 202.82 313.34 203.65 314.17 203.65 323.35 204.49 324.18 204.49 329.18 205.32 330.02 205.32 334.19 206.16 335.02 206.16 338.36 206.99 339.19 206.99 342.53 207.82 343.36 207.82 345.86 208.66 346.7 208.66 348.36 209.49 349.2 209.49 351.7 210.33 352.53 210.33 354.2 211.16 355.04 211.16 356.7 211.99 357.54 211.99 359.21 212.83 360.04 212.83 361.71 213.66 362.54 213.66 364.21 214.49 365.04 214.49 366.71 215.33 367.54 215.33 368.38 216.16 369.21 216.16 370.88 217 371.71 217 372.55 217.83 373.38 217.83 374.22 218.66 375.05 218.66 375.88 219.5 376.72 219.5 377.55 220.33 378.39 220.33 380.05 221.17 380.89 221.17 381.72 222 382.56 222 383.39 222.83 384.22 222.83 385.06 223.67 385.89 223.67 386.73 224.5 387.56 224.5 388.39 225.34 389.23 225.34 390.06 227 391.73 227 392.56 227.84 393.4 227.84 394.23 228.67 395.07 228.67 395.9 230.34 397.57 230.34 398.4 231.17 399.24 231.17 400.07 232.84 401.74 232.84 402.57 234.51 404.24 234.51 405.07 237.01 407.57 237.01 408.41 238.68 410.08 238.68 410.91 241.18 413.41 241.18 414.25 244.52 417.58 244.52 418.42 252.02 425.92 252.02 426.76 256.19 430.93 257.03 430.93 265.37 439.26 266.2 439.26 270.37 443.43 271.2 443.43 273.71 445.94 274.54 445.94 277.04 448.44 277.88 448.44 279.54 450.11 280.38 450.11 282.05 451.77 282.88 451.77 284.55 453.44 285.38 453.44 286.21 454.28 287.05 454.28 288.72 455.94 289.55 455.94 290.38 456.78 291.22 456.78 292.89 458.45 293.72 458.45 294.55 459.28 295.39 459.28 296.22 460.11 297.06 460.11 297.89 460.95 298.72 460.95 299.56 461.78 300.39 461.78 301.23 462.62 302.06 462.62 302.89 463.45 303.73 463.45 304.56 464.28 305.4 464.28 306.23 465.12 307.9 465.12 308.73 465.95 309.57 465.95 310.4 466.79 311.23 466.79 312.07 467.62 313.74 467.62 314.57 468.45 315.4 468.45 316.24 469.29 317.91 469.29 318.74 470.12 320.41 470.12 321.24 470.96 322.91 470.96 323.74 471.79 325.41 471.79 326.24 472.62 327.91 472.62 328.75 473.46 331.25 473.46 332.08 474.29 333.75 474.29 334.58 475.12 337.09 475.12 337.92 475.96 341.26 475.96 342.09 476.79 345.43 476.79 346.26 477.63 348.76 477.63 346.26 475.12 346.26 474.29 344.59 472.62 344.59 471.79 343.76 470.96 343.76 470.12 342.92 469.29 342.92 468.45 342.09 467.62 342.09 465.95 341.26 465.12 341.26 456.78 342.09 455.94 342.09 454.28 343.76 452.61 343.76 451.77 347.93 447.6 347.93 446.77 347.09 446.77 346.26 445.94 343.76 445.94 342.92 445.1 341.26 445.1 340.42 444.27 338.75 444.27 337.92 443.43 336.25 443.43 335.42 442.6 333.75 442.6 332.92 441.77 331.25 441.77 330.41 440.93 328.75 440.93 327.91 440.1 327.08 440.1 326.24 439.26 324.58 439.26 323.74 438.43 322.91 438.43 322.07 437.6 320.41 437.6 319.57 436.76 318.74 436.76 317.91 435.93 317.07 435.93 316.24 435.1 315.4 435.1 314.57 434.26 313.74 434.26 312.9 433.43 312.07 433.43 311.23 432.59 310.4 432.59 308.73 430.93 307.9 430.93 307.06 430.09 306.23 430.09 304.56 428.42 303.73 428.42 302.89 427.59 302.06 427.59 300.39 425.92 299.56 425.92 297.89 424.25 297.06 424.25 294.55 421.75 293.72 421.75 292.05 420.08 291.22 420.08 287.05 415.91 286.21 415.91 277.04 406.74 276.21 406.74 274.54 405.07 274.54 404.24 273.71 404.24 272.04 402.57 272.04 401.74 267.03 396.73 267.03 395.9 263.7 392.56 263.7 391.73 261.2 389.23 261.2 388.39 258.69 385.89 258.69 385.06 257.03 383.39 257.03 382.56 256.19 381.72 256.19 380.89 254.52 379.22 254.52 378.39 253.69 377.55 253.69 376.72 252.02 375.05 252.02 374.22 251.19 373.38 251.19 372.55 250.35 371.71 250.35 370.88 249.52 370.05 249.52 369.21 248.69 368.38 248.69 367.54 247.85 366.71 247.85 365.88 247.02 365.04 247.02 364.21 246.19 363.38 246.19 361.71 245.35 360.87 245.35 360.04 244.52 359.21 244.52 358.37 243.68 357.54 243.68 355.87 242.85 355.04 242.85 353.37 242.02 352.53 242.02 350.87 241.18 350.03 241.18 348.36 240.35 347.53 240.35 345.86 239.51 345.03 239.51 343.36 238.68 342.53 238.68 340.02 237.85 339.19 237.85 335.85 237.01 335.02 237.01 332.52 236.18 331.68 236.18 327.52 235.34 326.68 235.34 321.68 234.51 320.84 234.51 311.67 233.68 310.84 233.68 295.83 234.51 294.99 234.51 284.98 235.34 284.15 235.34 279.98 236.18 279.15 236.18 274.98 237.01 274.14 237.01 271.64 237.85 270.81 237.85 268.3 238.68 267.47 238.68 264.97 239.51 264.13 239.51 262.47 240.35 261.63 240.35 259.13 241.18 258.3 241.18 256.63 242.02 255.8 242.02 254.13 242.85 253.29 242.85 252.46 243.68 251.63 243.68 249.96 244.52 249.12 244.52 248.29 245.35 247.46 245.35 245.79 246.19 244.95 246.19 244.12 247.02 243.29 247.02 242.45 247.85 241.62 247.85 240.78 248.69 239.95 248.69 239.12 249.52 238.28 249.52 237.45 250.35 236.61 250.35 235.78 251.19 234.95 251.19 234.11 252.02 233.28 252.02 232.44 252.86 231.61 252.86 230.78 253.69 229.94 253.69 229.11 255.36 227.44 255.36 226.61 256.19 225.77 256.19 224.94 257.86 223.27 257.86 222.44 259.53 220.77 259.53 219.94 262.03 217.43 262.03 216.6 264.53 214.1 264.53 213.26 267.87 209.93 267.87 209.09 274.54 202.42 274.54 201.59 278.71 197.42 279.54 197.42 287.05 189.91 287.88 189.91 291.22 186.58 292.05 186.58 294.55 184.08 295.39 184.08 297.06 182.41 297.89 182.41 300.39 179.91 301.23 179.91 302.06 179.07 302.89 179.07 304.56 177.4 305.4 177.4 306.23 176.57 307.06 176.57 308.73 174.9 309.57 174.9 310.4 174.07 311.23 174.07 312.07 173.23 312.9 173.23 313.74 172.4 314.57 172.4 315.4 171.57 316.24 171.57 317.07 170.73 317.91 170.73 318.74 169.9 319.57 169.9 320.41 169.06 321.24 169.06 322.07 168.23 322.91 168.23 323.74 167.4 325.41 167.4 326.24 166.56 327.08 166.56 327.91 165.73 329.58 165.73 330.41 164.89 332.08 164.89 332.92 164.06 334.58 164.06 335.42 163.23 337.09 163.23 337.92 162.39 340.42 162.39 341.26 161.56 342.92 161.56 343.76 160.72 346.26 160.72 347.09 159.89 350.43 159.89 351.26 159.06 354.6 159.06 355.43 158.22 359.6 158.22 360.44 157.39 367.11 157.39 367.94 156.55 369.61 156.55 370.44 157.39 369.61 158.22 369.61 159.06 368.78 159.89 368.78 160.72 367.94 161.56 367.94 163.23 367.11 164.06 367.11 164.89 366.27 165.73 366.27 169.06 365.44 169.9 366.27 170.73 366.27 173.23 367.94 174.9 367.94 175.74 368.78 175.74 370.44 177.4 376.28 177.4 377.12 176.57 377.95 176.57 378.78 175.74 379.62 175.74 384.62 170.73 385.46 170.73 391.29 164.89 392.13 164.89 397.13 159.89 397.96 159.89 402.97 154.89 403.8 154.89 409.64 149.05 409.64 148.22 410.47 147.38 410.47 142.38 409.64 141.54 409.64 140.71 407.14 138.21 407.14 137.37 395.46 125.7 395.46 124.86 383.79 113.19 383.79 112.36 379.62 108.19 378.78 108.19 377.95 107.35 371.28 107.35"/>
</svg>